<svg width="302" height="302" viewBox="0 0 302 302" fill="none" xmlns="http://www.w3.org/2000/svg">
<path d="M236.714 1H65.2857C29.7817 1 1 29.7817 1 65.2858V236.715C1 272.219 29.7817 301 65.2857 301H236.714C272.218 301 301 272.219 301 236.715V65.2858C301 29.7817 272.218 1 236.714 1Z" stroke="#26242C" stroke-width="2"/>
<path d="M84.0359 259.587C107.705 259.587 126.893 240.399 126.893 216.73C126.893 193.06 107.705 173.872 84.0359 173.872C60.3665 173.872 41.1787 193.06 41.1787 216.73C41.1787 240.399 60.3665 259.587 84.0359 259.587Z" fill="#EB451B"/>
<path d="M102.674 219.559L76.2657 234.806C74.7032 235.708 72.7051 235.172 71.8029 233.61C71.5162 233.113 71.3652 232.55 71.3652 231.976V201.483C71.3652 199.678 72.8279 198.216 74.6322 198.216C75.2057 198.216 75.7691 198.367 76.2657 198.653L102.674 213.9C104.237 214.802 104.772 216.8 103.87 218.363C103.583 218.86 103.171 219.272 102.674 219.559Z" fill="white"/>
<path d="M81.3047 44.4208V127.361C81.3047 129.606 79.4844 131.427 77.239 131.427C74.9936 131.427 73.1733 129.606 73.1733 127.361V44.4208C73.1733 42.1753 74.9936 40.3551 77.239 40.3551C79.4844 40.3551 81.3047 42.1753 81.3047 44.4208Z" fill="#EB451B"/>
<path d="M68.242 61.854V121.469C68.242 124.125 66.4273 126.277 64.1887 126.277C61.9501 126.277 60.1354 124.125 60.1354 121.469V61.854C60.1354 59.1988 61.9501 57.0463 64.1887 57.0463C66.4273 57.0463 68.242 59.1988 68.242 61.854ZM109.586 61.854V121.469C109.586 124.125 107.771 126.277 105.533 126.277C103.294 126.277 101.479 124.125 101.479 121.469V61.854C101.479 59.1988 103.294 57.0463 105.533 57.0463C107.771 57.0463 109.586 59.1988 109.586 61.854Z" fill="#735CE8"/>
<path d="M122.774 72.8819V98.9023C122.774 101.148 120.954 102.968 118.709 102.968C116.463 102.968 114.643 101.148 114.643 98.9023V72.8819C114.643 70.6365 116.463 68.8162 118.709 68.8162C120.954 68.8162 122.774 70.6365 122.774 72.8819Z" fill="#EB451B"/>
<path d="M94.751 74.1183V104.26C94.751 106.861 92.9362 108.969 90.6976 108.969C88.4591 108.969 86.6443 106.861 86.6443 104.26V74.1183C86.6443 71.5173 88.4591 69.4088 90.6976 69.4088C92.9362 69.4088 94.751 71.5173 94.751 74.1183ZM53.4071 81.6537V96.7243C53.4071 99.3254 51.5924 101.434 49.3538 101.434C47.1152 101.434 45.3004 99.3254 45.3004 96.7243V81.6537C45.3004 79.0526 47.1152 76.9441 49.3538 76.9441C51.5924 76.9441 53.4071 79.0526 53.4071 81.6537Z" fill="#FFB80F"/>
<path d="M39.835 90.0237V90.8369C39.835 93.0823 38.0147 94.9026 35.7693 94.9026C33.5239 94.9026 31.7036 93.0823 31.7036 90.8369V90.0237C31.7036 87.7783 33.5239 85.958 35.7693 85.958C38.0147 85.958 39.835 87.7783 39.835 90.0237Z" fill="#EB451B"/>
<path d="M227.563 67.054C244.766 67.054 258.712 80.6125 258.712 97.3377C258.712 114.063 244.766 127.621 227.563 127.621C212.493 127.621 199.923 117.217 197.037 103.395L222.88 103.394C223.964 103.394 225.03 103.117 225.969 102.59C228.924 100.931 229.936 97.2575 228.23 94.3846L213.836 70.1457C217.977 68.1659 222.636 67.054 227.563 67.054Z" stroke="#EB451B" stroke-width="5.23561"/>
<path d="M197.137 43.6334C198.076 44.1606 198.856 44.9188 199.398 45.8319L213.837 70.1463C203.517 75.0799 196.415 85.4027 196.415 97.3383C196.415 99.4126 196.629 101.438 197.038 103.395H165.214C161.802 103.395 159.036 100.706 159.036 97.3885C159.036 96.3341 159.322 95.2983 159.864 94.3852L188.697 45.8319C190.403 42.959 194.182 41.9747 197.137 43.6334Z" stroke="#FFB80F" stroke-width="5.23561"/>
<path d="M213.835 70.1467L228.229 94.3855C229.935 97.2584 228.923 100.932 225.968 102.591C225.029 103.118 223.963 103.395 222.879 103.395L197.036 103.396C196.628 101.439 196.413 99.413 196.413 97.3387C196.413 85.4031 203.515 75.0802 213.835 70.1467Z" fill="#44D62C" stroke="#44D62C" stroke-width="5.23561"/>
<path d="M177.993 178.818H194.064C197.023 178.818 199.421 181.216 199.421 184.175C199.421 187.133 197.023 189.532 194.064 189.532H177.993C175.034 189.532 172.636 187.133 172.636 184.175C172.636 181.216 175.034 178.818 177.993 178.818ZM210.136 178.818H252.993C255.952 178.818 258.35 181.216 258.35 184.175C258.35 187.133 255.952 189.532 252.993 189.532H210.136C207.177 189.532 204.779 187.133 204.779 184.175C204.779 181.216 207.177 178.818 210.136 178.818Z" fill="#8E8E98"/>
<path d="M231.564 200.246H177.993C175.034 200.246 172.636 202.645 172.636 205.603C172.636 208.562 175.034 210.96 177.993 210.96H231.564C234.523 210.96 236.921 208.562 236.921 205.603C236.921 202.645 234.523 200.246 231.564 200.246Z" fill="#26242C"/>
<path d="M231.564 243.103H177.993C175.034 243.103 172.636 245.502 172.636 248.46C172.636 251.419 175.034 253.817 177.993 253.817H231.564C234.523 253.817 236.921 251.419 236.921 248.46C236.921 245.502 234.523 243.103 231.564 243.103Z" fill="#26242C"/>
<path d="M252.993 221.675H177.993C175.034 221.675 172.636 224.073 172.636 227.032C172.636 229.99 175.034 232.389 177.993 232.389H252.993C255.952 232.389 258.35 229.99 258.35 227.032C258.35 224.073 255.952 221.675 252.993 221.675Z" fill="#26242C"/>
</svg>
