<svg width="302" height="302" viewBox="0 0 302 302" fill="none" xmlns="http://www.w3.org/2000/svg">
<path d="M236.714 1H65.2857C29.7817 1 1 29.7817 1 65.2857V236.714C1 272.218 29.7817 301 65.2857 301H236.714C272.218 301 301 272.218 301 236.714V65.2857C301 29.7817 272.218 1 236.714 1Z" stroke="#26242C" stroke-width="2"/>
<path d="M216.626 199.215H256.804M45.1973 199.215H217.76" stroke="#735CE8" stroke-width="5.23561" stroke-linecap="round"/>
<path d="M220.013 218.583H262.265M39.7373 218.583H221.205" stroke="#44D62C" stroke-width="5.23561" stroke-linecap="round"/>
<path d="M209.927 237.952H250.106M49.627 237.952C49.627 237.952 148.017 237.952 211.061 237.952" stroke="#EB451B" stroke-width="5.23561" stroke-linecap="round"/>
<path d="M42.2076 118.648L54.1676 85.0679H60.4696L72.4296 118.648H65.8976L63.8276 112.668H50.8096L48.7396 118.648H42.2076ZM57.3416 93.9459L52.9256 106.688H61.7576L57.3416 93.9459ZM85.6485 119.2C79.1625 119.2 72.4005 114.048 72.4005 105.216C72.4005 96.2919 78.9325 91.1859 85.7405 91.1859C89.2825 91.1859 92.4105 92.6119 94.3885 94.9579V91.7379H100.598V118.648H94.3885V115.152C92.4105 117.682 89.1905 119.2 85.6485 119.2ZM86.6605 113.496C91.3065 113.496 94.7105 109.77 94.7105 105.124C94.7105 100.524 91.3065 96.8439 86.6605 96.8439C82.0605 96.8439 78.5185 100.478 78.5185 105.124C78.5185 109.816 82.0605 113.496 86.6605 113.496Z" fill="white"/>
</svg>
