<svg width="302" height="302" viewBox="0 0 302 302" fill="none" xmlns="http://www.w3.org/2000/svg">
<path d="M236.714 1H65.2857C29.7817 1 1 29.7817 1 65.2858V236.715C1 272.219 29.7817 301 65.2857 301H236.714C272.218 301 301 272.219 301 236.715V65.2858C301 29.7817 272.218 1 236.714 1Z" stroke="#26242C" stroke-width="2"/>
<path d="M209.557 255.465C234.912 255.465 255.466 234.91 255.466 209.555C255.466 184.2 234.912 163.646 209.557 163.646C184.202 163.646 163.647 184.2 163.647 209.555C163.647 234.91 184.202 255.465 209.557 255.465Z" stroke="#26242C" stroke-width="2"/>
<mask id="mask0_219_6276" style="mask-type:luminance" maskUnits="userSpaceOnUse" x="188" y="189" width="43" height="43">
<path fill-rule="evenodd" clip-rule="evenodd" d="M209.998 189C211.287 189 212.331 190.045 212.331 191.334V207.665L228.665 207.667C229.953 207.667 230.998 208.712 230.998 210C230.998 211.289 229.953 212.334 228.665 212.334L212.331 212.331V228.667C212.331 229.956 211.287 231 209.998 231C208.709 231 207.665 229.956 207.665 228.667V212.331L191.331 212.334C190.043 212.334 188.998 211.289 188.998 210C188.998 208.712 190.043 207.667 191.331 207.667L207.665 207.665V191.334C207.665 190.045 208.709 189 209.998 189Z" fill="white"/>
</mask>
<g mask="url(#mask0_219_6276)">
<path d="M188.998 189H230.998V231H188.998V189Z" fill="#26242C"/>
</g>
<path d="M92.4466 255.465C117.802 255.465 138.356 234.911 138.356 209.556C138.356 184.2 117.802 163.646 92.4466 163.646C67.0915 163.646 46.5371 184.2 46.5371 209.556C46.5371 234.911 67.0915 255.465 92.4466 255.465Z" fill="#FFB80F" stroke="black" stroke-opacity="0.15" stroke-width="5.23561"/>
<path d="M92.4466 138.355C117.802 138.355 138.356 117.801 138.356 92.4456C138.356 67.0904 117.802 46.536 92.4466 46.536C67.0915 46.536 46.5371 67.0904 46.5371 92.4456C46.5371 117.801 67.0915 138.355 92.4466 138.355Z" fill="#735CE8" stroke="black" stroke-opacity="0.15" stroke-width="5.23561"/>
<path d="M209.557 138.355C234.912 138.355 255.466 117.801 255.466 92.4455C255.466 67.0903 234.912 46.5359 209.557 46.5359C184.202 46.5359 163.647 67.0903 163.647 92.4455C163.647 117.801 184.202 138.355 209.557 138.355Z" fill="#EB451B" stroke="black" stroke-opacity="0.15" stroke-width="5.23561"/>
</svg>
