<svg width="200" height="200" viewBox="0 0 200 200" fill="none" xmlns="http://www.w3.org/2000/svg">
<rect width="200" height="200" rx="100" fill="#44D62C"/>
<g clip-path="url(#clip0_219_6270)">
<path d="M64.574 104.715C64.574 103.001 62.5621 102.573 59.9754 102.43C54.5145 102.001 50.9218 100.144 50.9218 94.7154C50.7781 84.0011 70.1786 84.0011 70.0349 94.7154H63.9992C63.9992 91.4297 57.2449 91.7154 57.1012 94.5725C56.9575 96.4297 58.8257 96.8583 61.125 97.144C66.1548 97.7154 71.0409 98.4297 71.0409 104.715C71.0409 115.144 50.6344 115.43 50.7781 104.43H56.9575C56.6701 107.573 64.574 107.573 64.574 104.715ZM131.542 120.001H140.883L142.751 121.858V131.43L140.883 133.43H131.542V120.001ZM143.901 114.287H124.931V139.287H144.044L149.505 133.858V119.715L143.901 114.287ZM116.452 133.43H105.1V120.001H116.452V133.43ZM123.063 114.287H98.6327V139.287H123.063V114.287ZM89.8666 133.43H78.5137V120.001H89.8666V133.43ZM96.4771 114.287H71.9031V139.287H96.3334V114.287H96.4771ZM59.2568 131.144V139.287H52.79V114.287H70.1786V120.001H59.4006V125.43H69.1727V131.144H59.2568ZM148.93 92.8583H138.009V96.4297H148.212V102.144H138.009V106.573H149.361V112.287H131.542V87.144H148.93V92.8583ZM119.614 106.287H129.674V112.001H113.147V87.144H119.614V106.287ZM111.135 106.43V112.001H98.3453V106.43H101.507V92.5725H98.6327V87.144H110.848V92.7154H107.974V106.573H111.135V106.43ZM94.1778 87.0011H96.4771V112.001H89.8666V100.858L84.5494 106.43H83.8308L78.5137 100.858V112.001H71.9031V87.0011H74.2024L83.9746 97.8583L94.1778 87.0011Z" fill="white"/>
<path d="M51.6406 60.8574V83.4289H148.212V60.8574H51.6406ZM57.8201 75.286C59.2571 75.286 60.5505 75.286 61.9876 75.286C61.9876 77.4289 67.3047 77.4289 67.3047 75.4289C67.3047 74.286 65.8677 74.0003 64.2869 73.8574C60.5505 73.5717 58.2512 72.286 58.1075 68.7146C57.9638 61.4289 71.0411 61.4289 71.0411 68.7146C69.4604 68.7146 68.4544 68.7146 66.8736 68.7146C66.8736 66.4289 62.275 66.7146 62.1313 68.7146C61.9876 70.0003 63.2809 70.286 64.8617 70.4289C68.167 70.8574 71.4723 71.286 71.4723 75.4289C71.4723 82.5717 57.8201 82.7146 57.8201 75.286ZM89.7231 74.8574C89.7231 78.5717 86.5616 80.7146 83.1126 80.7146C79.6636 80.7146 76.3583 78.5717 76.3583 74.8574V63.7146C77.6517 63.7146 79.0888 63.7146 80.5258 63.7146V74.8574C80.5258 76.286 81.8192 76.8574 83.1126 76.8574C84.4059 76.8574 85.6993 76.1431 85.6993 74.8574V63.7146C87.1364 63.7146 88.4298 63.7146 89.8668 63.7146V74.8574H89.7231ZM94.4655 75.286C95.9026 75.286 97.1959 75.286 98.633 75.286C98.633 77.4289 103.95 77.4289 103.95 75.4289C103.95 74.286 102.513 74.0003 100.932 73.8574C97.1959 73.5717 94.8966 72.286 94.7529 68.7146C94.6092 61.4289 107.687 61.4289 107.687 68.7146C106.106 68.7146 105.1 68.7146 103.519 68.7146C103.519 66.4289 98.9204 66.7146 98.7767 68.7146C98.633 70.0003 99.9264 70.286 101.507 70.4289C104.812 70.8574 108.118 71.286 108.118 75.4289C108.118 82.5717 94.4655 82.7146 94.4655 75.286ZM127.231 80.4289C125.794 80.4289 124.357 80.4289 122.776 80.4289V73.7146H117.602V80.4289C116.165 80.4289 114.585 80.4289 113.147 80.4289V63.7146C114.585 63.7146 116.022 63.7146 117.602 63.7146V69.8574H122.776V63.7146C124.213 63.7146 125.65 63.7146 127.231 63.7146V80.4289ZM140.452 80.4289H131.829V76.7146H133.985V67.4289H131.973V63.7146H140.164V67.4289H138.153V76.7146H140.308V80.4289H140.452Z" fill="white"/>
</g>
<defs>
<clipPath id="clip0_219_6270">
<rect width="98.5507" height="80" fill="white" transform="translate(51 60)"/>
</clipPath>
</defs>
</svg>
